<svg xmlns="http://www.w3.org/2000/svg" viewBox="0 0 120 120" role="img" aria-labelledby="title">
  <title id="title">DRDO logo</title>
  <defs>
    <linearGradient id="shield" x1="22" y1="8" x2="98" y2="112" gradientUnits="userSpaceOnUse">
      <stop stop-color="#0a4ea3"/>
      <stop offset="1" stop-color="#12356f"/>
    </linearGradient>
  </defs>
  <circle cx="60" cy="60" r="56" fill="#ffffff" stroke="#0a4ea3" stroke-width="5"/>
  <path fill="url(#shield)" d="M60 15c16 10 31 12 42 12v31c0 25-17 41-42 49-25-8-42-24-42-49V27c11 0 26-2 42-12Z"/>
  <circle cx="60" cy="51" r="13" fill="#ffffff"/>
  <path fill="#f2b705" d="M60 31 66 45 81 46 69 56 73 71 60 63 47 71 51 56 39 46 54 45z"/>
  <path fill="none" stroke="#ffffff" stroke-width="4" stroke-linecap="round" d="M32 80c16 8 40 8 56 0"/>
  <text x="60" y="99" fill="#ffffff" font-family="Arial, Helvetica, sans-serif" font-size="16" font-weight="700" text-anchor="middle">DRDO</text>
</svg>
